<?xml version="1.0" encoding="UTF-8" standalone="no"?>
<!-- Uploaded to: SVG Repo, www.svgrepo.com, Generator: SVG Repo Mixer Tools -->

<svg
   height="800"
   width="381.36563"
   version="1.1"
   id="_x35_"
   viewBox="0 0 244.074 511.99999"
   xml:space="preserve"
   sodipodi:docname="fish.svg"
   inkscape:version="1.3.2 (091e20ef0f, 2023-11-25, custom)"
   xmlns:inkscape="http://www.inkscape.org/namespaces/inkscape"
   xmlns:sodipodi="http://sodipodi.sourceforge.net/DTD/sodipodi-0.dtd"
   xmlns="http://www.w3.org/2000/svg"
   xmlns:svg="http://www.w3.org/2000/svg"><defs
   id="defs38" /><sodipodi:namedview
   id="namedview38"
   pagecolor="#505050"
   bordercolor="#ffffff"
   borderopacity="1"
   inkscape:showpageshadow="0"
   inkscape:pageopacity="0"
   inkscape:pagecheckerboard="1"
   inkscape:deskcolor="#505050"
   inkscape:zoom="0.79375"
   inkscape:cx="399.37008"
   inkscape:cy="400"
   inkscape:window-width="1920"
   inkscape:window-height="1012"
   inkscape:window-x="0"
   inkscape:window-y="32"
   inkscape:window-maximized="1"
   inkscape:current-layer="_x35_" />
<g
   id="g38"
   transform="rotate(-90,256,256)">
	<g
   id="g5">
		<polygon
   style="fill:#86cdcd"
   points="112.097,226.348 128.894,243.721 199.685,170.739 170.547,166.091 "
   id="polygon1" />
		<polygon
   style="fill:#78bcbc"
   points="97.039,210.77 112.097,226.348 170.547,166.091 141.712,161.486 "
   id="polygon2" />
		<polygon
   style="fill:#78bcbc"
   points="257.95,180.022 196.838,243.046 230.624,242.527 286.785,184.621 "
   id="polygon3" />
		<polygon
   style="fill:#86cdcd"
   points="162.687,243.566 196.838,243.046 257.95,180.022 228.817,175.38 "
   id="polygon4" />
		<polygon
   style="fill:#78bcbc"
   points="128.894,243.721 129.241,244.074 162.687,243.566 228.817,175.38 199.685,170.739 "
   id="polygon5" />
	</g>
	<g
   id="g10">
		<polygon
   style="fill:#72b7b5"
   points="144.033,81.492 164.519,77.203 125.651,28.723 115.935,50.577 "
   id="polygon6" />
		<polygon
   style="fill:#86cdcd"
   points="164.519,77.203 189.219,72.029 135.925,5.589 125.651,28.723 "
   id="polygon7" />
		<polygon
   style="fill:#86cdcd"
   points="163.467,0 216.637,66.285 240.992,61.191 191.912,0 "
   id="polygon8" />
		<polygon
   style="fill:#72b7b5"
   points="135.925,5.589 189.219,72.029 216.637,66.285 163.467,0 138.413,0 "
   id="polygon9" />
		<polygon
   style="fill:#72b7b5"
   points="217.095,0 191.912,0 240.992,61.191 264.863,56.203 "
   id="polygon10" />
	</g>
	<polygon
   style="fill:#6ec5c4"
   points="125.416,137.491 106.434,137.491 106.434,61.414 125.416,61.414 139.589,53.926 153.292,46.709 153.701,46.505 194.14,25.183 201.493,21.309 363.059,21.309 363.059,195.582 179.292,195.582 155.706,170.107 153.83,168.102 149.021,162.953 "
   id="polygon11" />
	<g
   id="g14">
		<path
   style="fill:#867675"
   d="m 214.861,21.309 c 0,8.485 -4.147,15.974 -10.564,20.523 -4.209,3.076 -9.352,4.877 -14.904,4.877 h -36.101 l 0.409,-0.204 40.439,-21.322 7.353,-3.874 z"
   id="path11" />
		<path
   style="fill:#549696"
   d="m 212.72,79.394 c 0,1.207 -0.068,2.408 -0.266,3.547 -0.935,7.018 -4.747,13.103 -10.224,17.119 -4.209,3.001 -9.365,4.808 -14.978,4.808 h -48.194 c -14.112,0 -25.468,-11.431 -25.468,-25.474 0,-7.08 2.803,-13.369 7.352,-17.979 h 4.475 l 14.173,-7.488 h 47.662 c 5.613,0 10.769,1.813 14.978,4.815 4.474,3.274 7.885,7.959 9.426,13.443 0.729,2.27 1.064,4.671 1.064,7.209 z"
   id="path12" />
		<path
   style="fill:#867675"
   d="m 212.72,195.582 h -33.428 l -23.586,-25.474 h 31.545 c 5.613,0 10.769,1.807 14.978,4.815 6.35,4.617 10.491,12.167 10.491,20.659 z"
   id="path13" />
		<path
   style="fill:#549696"
   d="m 212.72,137.491 c 0,2.47 -0.335,4.883 -0.997,7.155 -1.609,5.478 -5.019,10.225 -9.494,13.499 -4.209,3.008 -9.365,4.809 -14.978,4.809 h -38.23 l -23.605,-25.462 h -11.827 c 0,-7.018 2.803,-13.437 7.421,-18.053 4.611,-4.611 11.029,-7.414 18.047,-7.414 h 48.194 c 5.613,0 10.769,1.739 14.978,4.808 5.409,3.943 9.222,10.027 10.224,17.045 0.198,1.199 0.267,2.412 0.267,3.613 z"
   id="path14" />
	</g>
	<g
   id="g18">
		<polygon
   style="fill:#78bcbc"
   points="60.814,4.4 36.491,42.42 91.227,42.42 "
   id="polygon14" />
		<polygon
   style="fill:#78bcbc"
   points="60.814,194.523 91.227,156.497 36.491,156.497 "
   id="polygon15" />
		<polygon
   style="fill:#78bcbc"
   points="12.161,80.446 0,99.465 12.161,118.471 106.428,118.471 106.428,80.446 "
   id="polygon16" />
		<polygon
   style="fill:#86cdcd"
   points="91.227,42.42 36.491,42.42 12.161,80.446 106.428,80.446 106.428,61.439 "
   id="polygon17" />
		<polygon
   style="fill:#86cdcd"
   points="12.161,118.471 36.491,156.497 91.227,156.497 106.428,137.484 106.428,118.471 "
   id="polygon18" />
	</g>
	<g
   id="g20">
		<path
   style="fill:#6ec5c4"
   d="m 252.825,46.709 c 0,2.538 -0.328,4.945 -1.058,7.217 -3.076,10.565 -12.91,18.257 -24.404,18.257 h -48.201 c -11.568,0 -21.327,-7.693 -24.397,-18.257 -0.73,-2.271 -1.064,-4.679 -1.064,-7.217 v -0.204 l 40.439,-21.322 7.353,-3.874 h 25.87 c 14.037,0 25.462,11.363 25.462,25.4 z"
   id="path18" />
		<path
   style="fill:#6ec5c4"
   d="m 252.825,108.427 c 0,14.055 -11.395,25.456 -25.456,25.456 h -48.238 c -14.061,0 -25.456,-11.401 -25.456,-25.456 v 0 c 0,-14.062 11.395,-25.462 25.456,-25.462 h 48.238 c 14.062,0 25.456,11.4 25.456,25.462 z"
   id="path19" />
		<path
   style="fill:#6ec5c4"
   d="m 155.706,170.107 23.586,25.474 h 12.372 21.056 14.643 c 14.037,0 25.462,-11.431 25.462,-25.474 0,-2.47 -0.328,-4.877 -0.996,-7.155 -3.139,-10.553 -12.898,-18.307 -24.466,-18.307 h -15.64 -18.988 -13.573 c -7.018,0 -13.43,2.872 -18.047,7.489 -3.008,3.001 -5.218,6.684 -6.35,10.818 -0.538,1.671 -0.866,3.342 -0.934,5.149 z"
   id="path20" />
	</g>
	<g
   id="g24">
		<path
   style="fill:#549696"
   d="m 292.937,21.309 c 0,8.485 -4.14,15.974 -10.559,20.523 -4.215,3.076 -9.358,4.877 -14.91,4.877 h -48.262 c -5.545,0 -10.695,-1.801 -14.909,-4.877 -5.348,-3.813 -9.161,-9.761 -10.157,-16.649 l 7.353,-3.874 z"
   id="path21" />
		<path
   style="fill:#549696"
   d="m 290.802,79.375 c 0,14.056 -11.401,25.462 -25.462,25.462 h -48.232 c -14.061,0 -25.462,-11.407 -25.462,-25.462 v 0 c 0,-14.062 11.4,-25.462 25.462,-25.462 h 48.232 c 14.061,0 25.462,11.4 25.462,25.462 z"
   id="path22" />
		<path
   style="fill:#549696"
   d="m 290.802,195.582 h -99.137 c 0,-7.086 2.81,-13.443 7.415,-18.047 1.009,-0.941 2.012,-1.875 3.15,-2.612 4.208,-3.008 9.352,-4.815 14.903,-4.815 h 48.195 c 5.614,0 10.77,1.807 14.978,4.815 6.349,4.617 10.496,12.167 10.496,20.659 z"
   id="path23" />
		<path
   style="fill:#549696"
   d="m 290.802,137.466 c 0,14.056 -11.401,25.462 -25.462,25.462 h -48.232 c -14.061,0 -25.462,-11.407 -25.462,-25.462 v 0 c 0,-14.061 11.4,-25.456 25.462,-25.456 h 48.232 c 14.061,0 25.462,11.395 25.462,25.456 z"
   id="path24" />
	</g>
	<g
   id="g27">
		<path
   style="fill:#6ec5c4"
   d="m 330.9,46.74 c 0,14.055 -11.4,25.462 -25.462,25.462 H 257.2 c -14.061,0 -25.456,-11.407 -25.456,-25.462 v 0 c 0,-14.062 11.394,-25.456 25.456,-25.456 h 48.238 c 14.062,0 25.462,11.394 25.462,25.456 z"
   id="path25" />
		<path
   style="fill:#6ec5c4"
   d="m 330.9,108.427 c 0,14.055 -11.4,25.456 -25.462,25.456 H 257.2 c -14.061,0 -25.456,-11.401 -25.456,-25.456 v 0 c 0,-14.062 11.394,-25.462 25.456,-25.462 h 48.238 c 14.062,0 25.462,11.4 25.462,25.462 z"
   id="path26" />
		<path
   style="fill:#6ec5c4"
   d="m 330.9,170.101 c 0,14.062 -11.4,25.462 -25.462,25.462 H 257.2 c -14.061,0 -25.456,-11.4 -25.456,-25.462 v 0 c 0,-14.061 11.394,-25.449 25.456,-25.449 h 48.238 c 14.062,0 25.462,11.388 25.462,25.449 z"
   id="path27" />
	</g>
	<g
   id="g31">
		<path
   style="fill:#549696"
   d="m 363.059,21.309 v 18.382 c -4.543,4.344 -10.688,7.018 -17.515,7.018 h -48.263 c -5.545,0 -10.688,-1.801 -14.903,-4.877 -6.418,-4.549 -10.559,-12.038 -10.559,-20.523 z"
   id="path28" />
		<path
   style="fill:#549696"
   d="m 368.871,79.375 c 0,14.056 -11.394,25.462 -25.456,25.462 h -48.238 c -14.062,0 -25.462,-11.407 -25.462,-25.462 v 0 c 0,-14.062 11.4,-25.462 25.462,-25.462 h 48.238 c 14.062,0 25.456,11.4 25.456,25.462 z"
   id="path29" />
		<path
   style="fill:#549696"
   d="m 363.059,179.335 v 16.247 H 269.74 c 0,-7.086 2.81,-13.443 7.427,-18.047 0.996,-0.941 1.999,-1.875 3.138,-2.612 4.209,-3.008 9.29,-4.815 14.841,-4.815 h 48.269 c 7.885,-0.001 14.966,3.614 19.644,9.227 z"
   id="path30" />
		<path
   style="fill:#549696"
   d="m 368.871,137.466 c 0,14.056 -11.394,25.462 -25.456,25.462 h -48.238 c -14.062,0 -25.462,-11.407 -25.462,-25.462 v 0 c 0,-14.061 11.4,-25.456 25.462,-25.456 h 48.238 c 14.062,0 25.456,11.395 25.456,25.456 z"
   id="path31" />
	</g>
	<g
   id="g34">
		<path
   style="fill:#6ec5c4"
   d="m 408.97,46.74 c 0,14.055 -11.401,25.462 -25.462,25.462 H 335.27 c -14.062,0 -25.456,-11.407 -25.456,-25.462 v 0 c 0,-14.062 11.394,-25.456 25.456,-25.456 h 48.238 c 14.061,0 25.462,11.394 25.462,25.456 z"
   id="path32" />
		<path
   style="fill:#6ec5c4"
   d="m 408.97,108.427 c 0,14.055 -11.401,25.456 -25.462,25.456 H 335.27 c -14.062,0 -25.456,-11.401 -25.456,-25.456 v 0 c 0,-14.062 11.394,-25.462 25.456,-25.462 h 48.238 c 14.061,0 25.462,11.4 25.462,25.462 z"
   id="path33" />
		<path
   style="fill:#6ec5c4"
   d="m 408.97,170.101 c 0,14.062 -11.401,25.462 -25.462,25.462 H 335.27 c -14.062,0 -25.456,-11.4 -25.456,-25.462 v 0 c 0,-14.061 11.394,-25.449 25.456,-25.449 h 48.238 c 14.061,0 25.462,11.388 25.462,25.449 z"
   id="path34" />
	</g>
	<polygon
   style="fill:#78bcbc"
   points="391.467,234.381 427.538,234.381 397.836,167.05 385.099,169.971 "
   id="polygon34" />
	<polygon
   style="fill:#549696"
   points="363.059,195.582 337.659,102.659 363.059,21.309 512,21.309 512,71.979 409.051,195.582 "
   id="polygon35" />
	<path
   style="fill:#ffffff"
   d="m 442.311,62.473 c 0,10.503 -8.504,19.019 -19.007,19.019 -10.503,0 -19.019,-8.516 -19.019,-19.019 0,-10.497 8.517,-19.007 19.019,-19.007 10.503,0 19.007,8.51 19.007,19.007 z"
   id="path35" />
	<path
   style="fill:#005151"
   d="m 432.618,62.473 c 0,5.149 -4.165,9.314 -9.315,9.314 -5.149,0 -9.314,-4.165 -9.314,-9.314 0,-5.143 4.165,-9.309 9.314,-9.309 5.15,0 9.315,4.166 9.315,9.309 z"
   id="path36" />
	<polygon
   style="fill:#86cdcd"
   points="381.169,240.236 331.408,240.236 372.392,172.905 389.957,175.826 "
   id="polygon36" />
	<g
   id="g37">
		<polygon
   style="fill:#468582"
   points="512,49.055 451.174,113.824 441.407,104.664 512,29.46 "
   id="polygon37" />
	</g>
</g>
</svg>
